<?xml version="1.0" encoding="utf-8"?>
<!-- Generator: Adobe Illustrator 19.0.0, SVG Export Plug-In . SVG Version: 6.00 Build 0)  -->
<svg version="1.1" id="layer" xmlns="http://www.w3.org/2000/svg" xmlns:xlink="http://www.w3.org/1999/xlink" x="0px" y="0px"
	 viewBox="-153 -46 652 652" style="enable-background:new -153 -46 652 652;" xml:space="preserve">
<style type="text/css">
	.st0{fill:#003B83;}
	.st1{fill:#00B9EF;}
</style>
<path d="M112.4,341.1c-15.1,0-27.4-8.1-27.4-16.6v-45.7h23.8v41.6c0,2.9,3,5.3,6.6,5.3c3.7,0,6.7-2.4,6.7-5.3v-41.6h23.8v45.7
	c0,8.5-12.2,16.6-27.4,16.6H112.4z M338.5,341.1c15.1,0,27.3-8.1,27.3-16.6v-45.8h-23.8v41.7c0,2.9-3,5.3-6.7,5.3
	c-3.7,0-6.6-2.4-6.6-5.3v-41.7H305v45.8c0,8.5,12.2,16.6,27.3,16.6H338.5z M197.4,267.6h13.4c5.4,0,9.7-4.4,9.7-9.7v-9.1h-23.1
	V267.6z M220.6,278.8h-23.1v60.8h23.1V278.8z M473.9,327.4c0,9.9-6.6,11.3-9.7,12.2c-4.1,1.2-11.1,1.9-20.4,1.9
	c-8.1,0-16.9-0.4-22.9-4.3c-5.9-3.9-6-11.4-6-13v-3.3c0-9.6,4.6-13.6,10.8-15.1c6.2-1.4,18.3-2.9,21-3.4c3.2-0.6,3.2-4.5,3.2-5.6
	c0-1.2-0.1-4.2-2.9-4.6c-3.7-0.6-18.1,0.4-24.2,1.4v-13.8c2.6-0.9,12.1-2.4,18.1-2.4c6,0,10.7,0.1,17.4,1.2
	c8,1.3,15.4,4.5,15.4,11.3V327.4z M444.4,326.6c6.7,0,5.9-2.8,5.9-4.9v-6.7c-2.1,0.2-4.6,0.2-5.7,0.4c-2.4,0.3-6.4,2.5-6.4,6.1v0.4
	C438.2,323.1,438.6,326.6,444.4,326.6 M80.1,248.8H26.6c-9.3,0-16.8,7.5-16.8,16.8v74h27.7v-37.7h36.4v-18.5H37.4v-10.5
	c0-3.5,2.9-6.4,6.4-6.4h36.2V248.8z M159.3,248.8v18.9H173c5.7,0,10.4-4.7,10.4-10.6v-8.3H159.3z M146,356.9h20.5
	c9.3,0,16.8-7.5,16.8-16.8v-61.3h-24.1v60.7c0,3-2.5,5.5-5.5,5.5H146V356.9z M281,302.5h-5.1l23.2-23.8h-26.1L258,293.2v-44.4h-23.4
	v90.8H258v-27.2h9.1c2.6,0,4.7,2.1,4.7,4.7v22.6h23.7V317C295.5,309,289,302.5,281,302.5 M399.6,298.6c0-3,2.4-5.3,5.4-5.4
	c1.8-0.1,7.3,0.2,10.1,0.5v-14.9c-9.8-1.4-18.4-0.7-21.2-0.5c-9.9,0.6-16.7,7.5-16.7,16.7v44.6h22.4V298.6z"/>
<path class="st0" d="M-92,338.9c6,0,11.2-3.9,13.1-9.2l15.1-41.6h26.9c11.9,0,21.6-9.7,21.6-21.6v-18.1h-60.2
	c-10.8,0-20.1,6.8-23.6,16.4l-27,74.1H-92z"/>
<path class="st1" d="M-89.8,201c-20,0-36.2,16.2-36.2,36.2v69.1l16.5-45.3c5.1-13.9,18.4-23.9,34.1-23.9h49.1
	c11.9,0,21.6-9.7,21.6-21.6V201H-89.8z"/>
</svg>
